FFmpeg version UNKNOWN, Copyright (c) 2000-2010 the FFmpeg developers
  built on Nov  9 2010 12:08:03 with gcc 4.2.1 (Apple Inc. build 5664)
  configuration: --prefix=/Users/worth/OtherApps/ffmpeg/ffmpeg/../local/i386 --enable-static --enable-shared --enable-gpl --enable-version3 --enable-libmp3lame --enable-pthreads --enable-libvorbis --enable-libx264 --enable-libxvid --enable-libspeex --enable-libopencore_amrwb --enable-libopencore_amrnb --enable-libvpx --enable-memalign-hack --disable-debug --disable-stripping --arch=x86_32  libavutil     50.33. 0 / 50.33. 0
  libavcore      0.12. 0 /  0.12. 0
  libavcodec    52.94. 3 / 52.94. 3
  libavformat   52.84. 0 / 52.84. 0
  libavdevice   52. 2. 2 / 52. 2. 2
  libavfilter    1.59. 0 /  1.59. 0
  libswscale     0.12. 0 /  0.12. 0
[ogg @ 0x1808010] max_analyze_duration reached
Input #0, ogg, from '/Users/willg/Movies/Miro/Converted/Nano as Watch, Gadgety Pool Cleaning, New Goodies for Android, Spoken Facebook with OnStar, 100 Cats in IKEA - GeekBeat.TV.oggtheora.ogv':
  Duration: 00:05:23.82, start: 0.000000, bitrate: 522 kb/s
    Stream #0.0: Data: skeleton
    Stream #0.1: Video: theora, yuv420p, 320x192, 29.97 fps, 29.97 tbr, 29.97 tbn, 29.97 tbc
    Stream #0.2: Audio: vorbis, 44100 Hz, stereo, s16, 192 kb/s
    Metadata:
      ENCODER         : ffmpeg2theora-0.26
      SOURCE_OSHASH   : f9268526b8cf6447
At least one output file must be specified
